<?xml version="1.0" encoding="UTF-8" standalone="no"?>
<!DOCTYPE svg PUBLIC "-//W3C//DTD SVG 1.1//EN"
 "http://www.w3.org/Graphics/SVG/1.1/DTD/svg11.dtd">
<!-- Generated by graphviz version 2.46.0 (20210118.1747)
 -->
<!-- Title: dependency&#45;cruiser output Pages: 1 -->
<svg width="897pt" height="698pt"
 viewBox="0.00 0.00 897.00 697.75" xmlns="http://www.w3.org/2000/svg" xmlns:xlink="http://www.w3.org/1999/xlink">
<g id="graph0" class="graph" transform="scale(1 1) rotate(0) translate(4 693.75)">
<title>dependency&#45;cruiser output</title>
<polygon fill="white" stroke="transparent" points="-4,4 -4,-693.75 893,-693.75 893,4 -4,4"/>
<g id="clust1" class="cluster">
<title>cluster_node_modules</title>
<path fill="#ffffff" stroke="black" stroke-width="2" d="M775,-167.75C775,-167.75 869,-167.75 869,-167.75 875,-167.75 881,-173.75 881,-179.75 881,-179.75 881,-357.75 881,-357.75 881,-363.75 875,-369.75 869,-369.75 869,-369.75 775,-369.75 775,-369.75 769,-369.75 763,-363.75 763,-357.75 763,-357.75 763,-179.75 763,-179.75 763,-173.75 769,-167.75 775,-167.75"/>
<text text-anchor="middle" x="822" y="-358.55" font-family="Helvetica,sans-Serif" font-weight="bold" font-size="9.00">node_modules</text>
</g>
<g id="clust2" class="cluster">
<title>cluster_src</title>
<path fill="#ffffff" stroke="black" stroke-width="2" d="M20,-347.75C20,-347.75 743,-347.75 743,-347.75 749,-347.75 755,-353.75 755,-359.75 755,-359.75 755,-669.75 755,-669.75 755,-675.75 749,-681.75 743,-681.75 743,-681.75 20,-681.75 20,-681.75 14,-681.75 8,-675.75 8,-669.75 8,-669.75 8,-359.75 8,-359.75 8,-353.75 14,-347.75 20,-347.75"/>
<text text-anchor="middle" x="381.5" y="-670.55" font-family="Helvetica,sans-Serif" font-weight="bold" font-size="9.00">src</text>
</g>
<g id="clust3" class="cluster">
<title>cluster_src/assets</title>
<path fill="#ffffff" stroke="black" stroke-width="2" d="M430,-389.75C430,-389.75 476,-389.75 476,-389.75 482,-389.75 488,-395.75 488,-401.75 488,-401.75 488,-429.75 488,-429.75 488,-435.75 482,-441.75 476,-441.75 476,-441.75 430,-441.75 430,-441.75 424,-441.75 418,-435.75 418,-429.75 418,-429.75 418,-401.75 418,-401.75 418,-395.75 424,-389.75 430,-389.75"/>
<text text-anchor="middle" x="453" y="-430.55" font-family="Helvetica,sans-Serif" font-weight="bold" font-size="9.00">assets</text>
</g>
<g id="clust4" class="cluster">
<title>cluster_src/components</title>
<path fill="#ffffff" stroke="black" stroke-width="2" d="M430,-449.75C430,-449.75 640,-449.75 640,-449.75 646,-449.75 652,-455.75 652,-461.75 652,-461.75 652,-583.75 652,-583.75 652,-589.75 646,-595.75 640,-595.75 640,-595.75 430,-595.75 430,-595.75 424,-595.75 418,-589.75 418,-583.75 418,-583.75 418,-461.75 418,-461.75 418,-455.75 424,-449.75 430,-449.75"/>
<text text-anchor="middle" x="535" y="-584.55" font-family="Helvetica,sans-Serif" font-weight="bold" font-size="9.00">components</text>
</g>
<g id="clust5" class="cluster">
<title>cluster_src/components/Button</title>
<path fill="#ffffff" stroke="black" stroke-width="2" d="M508,-457.75C508,-457.75 554,-457.75 554,-457.75 560,-457.75 566,-463.75 566,-469.75 566,-469.75 566,-497.75 566,-497.75 566,-503.75 560,-509.75 554,-509.75 554,-509.75 508,-509.75 508,-509.75 502,-509.75 496,-503.75 496,-497.75 496,-497.75 496,-469.75 496,-469.75 496,-463.75 502,-457.75 508,-457.75"/>
<text text-anchor="middle" x="531" y="-498.55" font-family="Helvetica,sans-Serif" font-weight="bold" font-size="9.00">Button</text>
</g>
<g id="clust6" class="cluster">
<title>cluster_src/components/Message</title>
<path fill="#ffffff" stroke="black" stroke-width="2" d="M508,-517.75C508,-517.75 632,-517.75 632,-517.75 638,-517.75 644,-523.75 644,-529.75 644,-529.75 644,-557.75 644,-557.75 644,-563.75 638,-569.75 632,-569.75 632,-569.75 508,-569.75 508,-569.75 502,-569.75 496,-563.75 496,-557.75 496,-557.75 496,-529.75 496,-529.75 496,-523.75 502,-517.75 508,-517.75"/>
<text text-anchor="middle" x="570" y="-558.55" font-family="Helvetica,sans-Serif" font-weight="bold" font-size="9.00">Message</text>
</g>
<g id="clust7" class="cluster">
<title>cluster_src/containers</title>
<path fill="#ffffff" stroke="black" stroke-width="2" d="M207,-381.75C207,-381.75 398,-381.75 398,-381.75 404,-381.75 410,-387.75 410,-393.75 410,-393.75 410,-575.75 410,-575.75 410,-581.75 404,-587.75 398,-587.75 398,-587.75 207,-587.75 207,-587.75 201,-587.75 195,-581.75 195,-575.75 195,-575.75 195,-393.75 195,-393.75 195,-387.75 201,-381.75 207,-381.75"/>
<text text-anchor="middle" x="302.5" y="-576.55" font-family="Helvetica,sans-Serif" font-weight="bold" font-size="9.00">containers</text>
</g>
<g id="clust8" class="cluster">
<title>cluster_src/containers/Chat</title>
<path fill="#ffffff" stroke="black" stroke-width="2" d="M277,-389.75C277,-389.75 390,-389.75 390,-389.75 396,-389.75 402,-395.75 402,-401.75 402,-401.75 402,-429.75 402,-429.75 402,-435.75 396,-441.75 390,-441.75 390,-441.75 277,-441.75 277,-441.75 271,-441.75 265,-435.75 265,-429.75 265,-429.75 265,-401.75 265,-401.75 265,-395.75 271,-389.75 277,-389.75"/>
<text text-anchor="middle" x="333.5" y="-430.55" font-family="Helvetica,sans-Serif" font-weight="bold" font-size="9.00">Chat</text>
</g>
<g id="clust9" class="cluster">
<title>cluster_src/containers/Login</title>
<path fill="#ffffff" stroke="black" stroke-width="2" d="M277,-449.75C277,-449.75 390,-449.75 390,-449.75 396,-449.75 402,-455.75 402,-461.75 402,-461.75 402,-489.75 402,-489.75 402,-495.75 396,-501.75 390,-501.75 390,-501.75 277,-501.75 277,-501.75 271,-501.75 265,-495.75 265,-489.75 265,-489.75 265,-461.75 265,-461.75 265,-455.75 271,-449.75 277,-449.75"/>
<text text-anchor="middle" x="333.5" y="-490.55" font-family="Helvetica,sans-Serif" font-weight="bold" font-size="9.00">Login</text>
</g>
<g id="clust10" class="cluster">
<title>cluster_src/containers/Logout</title>
<path fill="#ffffff" stroke="black" stroke-width="2" d="M277,-509.75C277,-509.75 390,-509.75 390,-509.75 396,-509.75 402,-515.75 402,-521.75 402,-521.75 402,-549.75 402,-549.75 402,-555.75 396,-561.75 390,-561.75 390,-561.75 277,-561.75 277,-561.75 271,-561.75 265,-555.75 265,-549.75 265,-549.75 265,-521.75 265,-521.75 265,-515.75 271,-509.75 277,-509.75"/>
<text text-anchor="middle" x="333.5" y="-550.55" font-family="Helvetica,sans-Serif" font-weight="bold" font-size="9.00">Logout</text>
</g>
<g id="clust11" class="cluster">
<title>cluster_src/hooks</title>
<path fill="#ffffff" stroke="black" stroke-width="2" d="M586,-603.75C586,-603.75 735,-603.75 735,-603.75 741,-603.75 747,-609.75 747,-615.75 747,-615.75 747,-643.75 747,-643.75 747,-649.75 741,-655.75 735,-655.75 735,-655.75 586,-655.75 586,-655.75 580,-655.75 574,-649.75 574,-643.75 574,-643.75 574,-615.75 574,-615.75 574,-609.75 580,-603.75 586,-603.75"/>
<text text-anchor="middle" x="660.5" y="-644.55" font-family="Helvetica,sans-Serif" font-weight="bold" font-size="9.00">hooks</text>
</g>
<!-- node_modules/@testing&#45;library -->
<g id="node1" class="node">
<title>node_modules/@testing&#45;library</title>
<g id="a_node1"><a xlink:href="node_modules/@testing-library" xlink:title="@testing&#45;library">
<polygon fill="#c40b0a" fill-opacity="0.101961" stroke="black" points="862.5,-193.75 783.5,-193.75 781.5,-191.75 781.5,-175.75 860.5,-175.75 862.5,-177.75 862.5,-193.75"/>
<polyline fill="none" stroke="black" points="860.5,-191.75 781.5,-191.75 "/>
<polyline fill="none" stroke="black" points="860.5,-191.75 860.5,-175.75 "/>
<polyline fill="none" stroke="black" points="860.5,-191.75 862.5,-193.75 "/>
<text text-anchor="middle" x="822" y="-182.55" font-family="Helvetica,sans-Serif" font-size="9.00" fill="#c40b0a">@testing&#45;library</text>
</a>
</g>
</g>
<!-- node_modules/firebase -->
<g id="node2" class="node">
<title>node_modules/firebase</title>
<g id="a_node2"><a xlink:href="node_modules/firebase" xlink:title="firebase">
<polygon fill="#c40b0a" fill-opacity="0.101961" stroke="black" points="849,-313.75 797,-313.75 795,-311.75 795,-295.75 847,-295.75 849,-297.75 849,-313.75"/>
<polyline fill="none" stroke="black" points="847,-311.75 795,-311.75 "/>
<polyline fill="none" stroke="black" points="847,-311.75 847,-295.75 "/>
<polyline fill="none" stroke="black" points="847,-311.75 849,-313.75 "/>
<text text-anchor="middle" x="822" y="-302.55" font-family="Helvetica,sans-Serif" font-size="9.00" fill="#c40b0a">firebase</text>
</a>
</g>
</g>
<!-- node_modules/react -->
<g id="node3" class="node">
<title>node_modules/react</title>
<g id="a_node3"><a xlink:href="node_modules/react" xlink:title="react">
<polygon fill="#c40b0a" fill-opacity="0.101961" stroke="black" points="849,-253.75 797,-253.75 795,-251.75 795,-235.75 847,-235.75 849,-237.75 849,-253.75"/>
<polyline fill="none" stroke="black" points="847,-251.75 795,-251.75 "/>
<polyline fill="none" stroke="black" points="847,-251.75 847,-235.75 "/>
<polyline fill="none" stroke="black" points="847,-251.75 849,-253.75 "/>
<text text-anchor="middle" x="822" y="-242.55" font-family="Helvetica,sans-Serif" font-size="9.00" fill="#c40b0a">react</text>
</a>
</g>
</g>
<!-- node_modules/react&#45;dom -->
<g id="node4" class="node">
<title>node_modules/react&#45;dom</title>
<g id="a_node4"><a xlink:href="node_modules/react-dom" xlink:title="react&#45;dom">
<polygon fill="#c40b0a" fill-opacity="0.101961" stroke="black" points="851.5,-223.75 794.5,-223.75 792.5,-221.75 792.5,-205.75 849.5,-205.75 851.5,-207.75 851.5,-223.75"/>
<polyline fill="none" stroke="black" points="849.5,-221.75 792.5,-221.75 "/>
<polyline fill="none" stroke="black" points="849.5,-221.75 849.5,-205.75 "/>
<polyline fill="none" stroke="black" points="849.5,-221.75 851.5,-223.75 "/>
<text text-anchor="middle" x="822" y="-212.55" font-family="Helvetica,sans-Serif" font-size="9.00" fill="#c40b0a">react&#45;dom</text>
</a>
</g>
</g>
<!-- node_modules/react&#45;firebase&#45;hooks -->
<g id="node5" class="node">
<title>node_modules/react&#45;firebase&#45;hooks</title>
<g id="a_node5"><a xlink:href="node_modules/react-firebase-hooks" xlink:title="react&#45;firebase&#45;hooks">
<polygon fill="#c40b0a" fill-opacity="0.101961" stroke="black" points="873,-343.75 773,-343.75 771,-341.75 771,-325.75 871,-325.75 873,-327.75 873,-343.75"/>
<polyline fill="none" stroke="black" points="871,-341.75 771,-341.75 "/>
<polyline fill="none" stroke="black" points="871,-341.75 871,-325.75 "/>
<polyline fill="none" stroke="black" points="871,-341.75 873,-343.75 "/>
<text text-anchor="middle" x="822" y="-332.55" font-family="Helvetica,sans-Serif" font-size="9.00" fill="#c40b0a">react&#45;firebase&#45;hooks</text>
</a>
</g>
</g>
<!-- node_modules/styled&#45;components -->
<g id="node6" class="node">
<title>node_modules/styled&#45;components</title>
<g id="a_node6"><a xlink:href="node_modules/styled-components" xlink:title="styled&#45;components">
<polygon fill="#c40b0a" fill-opacity="0.101961" stroke="black" points="869.5,-283.75 776.5,-283.75 774.5,-281.75 774.5,-265.75 867.5,-265.75 869.5,-267.75 869.5,-283.75"/>
<polyline fill="none" stroke="black" points="867.5,-281.75 774.5,-281.75 "/>
<polyline fill="none" stroke="black" points="867.5,-281.75 867.5,-265.75 "/>
<polyline fill="none" stroke="black" points="867.5,-281.75 869.5,-283.75 "/>
<text text-anchor="middle" x="822" y="-272.55" font-family="Helvetica,sans-Serif" font-size="9.00" fill="#c40b0a">styled&#45;components</text>
</a>
</g>
</g>
<!-- react&#45;scripts -->
<g id="node7" class="node">
<title>react&#45;scripts</title>
<path fill="#ffffcc" stroke="red" d="M181,-43.75C181,-43.75 125,-43.75 125,-43.75 122,-43.75 119,-40.75 119,-37.75 119,-37.75 119,-31.75 119,-31.75 119,-28.75 122,-25.75 125,-25.75 125,-25.75 181,-25.75 181,-25.75 184,-25.75 187,-28.75 187,-31.75 187,-31.75 187,-37.75 187,-37.75 187,-40.75 184,-43.75 181,-43.75"/>
<text text-anchor="middle" x="153" y="-32.55" font-family="Helvetica,sans-Serif" font-size="9.00" fill="red">react&#45;scripts</text>
</g>
<!-- src/App.test.tsx -->
<g id="node8" class="node">
<title>src/App.test.tsx</title>
<g id="a_node8"><a xlink:href="src/App.test.tsx" xlink:title="App.test.tsx">
<path fill="#bbfeff" stroke="black" d="M86.5,-463.75C86.5,-463.75 35.5,-463.75 35.5,-463.75 32.5,-463.75 29.5,-460.75 29.5,-457.75 29.5,-457.75 29.5,-451.75 29.5,-451.75 29.5,-448.75 32.5,-445.75 35.5,-445.75 35.5,-445.75 86.5,-445.75 86.5,-445.75 89.5,-445.75 92.5,-448.75 92.5,-451.75 92.5,-451.75 92.5,-457.75 92.5,-457.75 92.5,-460.75 89.5,-463.75 86.5,-463.75"/>
<text text-anchor="middle" x="61" y="-452.55" font-family="Helvetica,sans-Serif" font-size="9.00">App.test.tsx</text>
</a>
</g>
</g>
<!-- src/App.test.tsx&#45;&gt;node_modules/@testing&#45;library -->
<g id="edge2" class="edge">
<title>src/App.test.tsx&#45;&gt;node_modules/@testing&#45;library</title>
<path fill="none" stroke="#000000" stroke-opacity="0.200000" d="M92.53,-449.64C97.76,-447.42 102.59,-444.26 106,-439.75 122.58,-417.83 107.47,-217.7 119,-192.75 147.23,-131.68 161.72,-88.75 229,-88.75 229,-88.75 229,-88.75 610,-88.75 674.7,-88.75 698.04,-71.06 755,-101.75 783.49,-117.1 803.98,-150.51 814.02,-169.94"/>
<polygon fill="#000000" fill-opacity="0.200000" stroke="#000000" stroke-opacity="0.200000" points="812.23,-171.06 816.79,-175.48 815.98,-169.18 812.23,-171.06"/>
</g>
<!-- src/App.test.tsx&#45;&gt;node_modules/react -->
<g id="edge3" class="edge">
<title>src/App.test.tsx&#45;&gt;node_modules/react</title>
<path fill="none" stroke="#000000" stroke-opacity="0.200000" d="M92.53,-448.47C97.5,-446.35 102.24,-443.53 106,-439.75 116.99,-428.7 186.7,-186.94 195,-173.75 206.21,-155.93 207.94,-140.75 229,-140.75 229,-140.75 229,-140.75 610,-140.75 674.7,-140.75 708.9,-108.35 755,-153.75 767.1,-165.66 751.91,-216.89 763,-229.75 769.47,-237.25 779.15,-241.25 788.76,-243.31"/>
<polygon fill="#000000" fill-opacity="0.200000" stroke="#000000" stroke-opacity="0.200000" points="788.43,-245.38 794.7,-244.36 789.16,-241.25 788.43,-245.38"/>
</g>
<!-- src/App.tsx -->
<g id="node9" class="node">
<title>src/App.tsx</title>
<g id="a_node9"><a xlink:href="src/App.tsx" xlink:title="App.tsx">
<path fill="#bbfeff" stroke="black" d="M174,-463.75C174,-463.75 132,-463.75 132,-463.75 129,-463.75 126,-460.75 126,-457.75 126,-457.75 126,-451.75 126,-451.75 126,-448.75 129,-445.75 132,-445.75 132,-445.75 174,-445.75 174,-445.75 177,-445.75 180,-448.75 180,-451.75 180,-451.75 180,-457.75 180,-457.75 180,-460.75 177,-463.75 174,-463.75"/>
<text text-anchor="middle" x="153" y="-452.55" font-family="Helvetica,sans-Serif" font-size="9.00">App.tsx</text>
</a>
</g>
</g>
<!-- src/App.test.tsx&#45;&gt;src/App.tsx -->
<g id="edge1" class="edge">
<title>src/App.test.tsx&#45;&gt;src/App.tsx</title>
<path fill="none" stroke="#000000" stroke-width="2" stroke-opacity="0.200000" d="M92.72,-454.75C101.41,-454.75 110.89,-454.75 119.67,-454.75"/>
<polygon fill="#000000" fill-opacity="0.200000" stroke="#000000" stroke-width="2" stroke-opacity="0.200000" points="119.91,-456.85 125.91,-454.75 119.91,-452.65 119.91,-456.85"/>
</g>
<!-- src/App.tsx&#45;&gt;node_modules/react -->
<g id="edge5" class="edge">
<title>src/App.tsx&#45;&gt;node_modules/react</title>
<path fill="none" stroke="#000000" stroke-opacity="0.200000" d="M180.18,-446.23C182.81,-444.45 185.18,-442.32 187,-439.75 198.61,-423.37 189.01,-368.92 195,-349.75 222.89,-260.45 205.45,-166.75 299,-166.75 299,-166.75 299,-166.75 610,-166.75 674.79,-166.75 707.79,-137.38 755,-181.75 770.76,-196.56 748.39,-213.8 763,-229.75 769.69,-237.05 779.43,-241 789.02,-243.08"/>
<polygon fill="#000000" fill-opacity="0.200000" stroke="#000000" stroke-opacity="0.200000" points="788.67,-245.15 794.95,-244.14 789.41,-241.01 788.67,-245.15"/>
</g>
<!-- src/styles.ts -->
<g id="node10" class="node">
<title>src/styles.ts</title>
<g id="a_node10"><a xlink:href="src/styles.ts" xlink:title="styles.ts">
<path fill="#ddfeff" stroke="black" d="M251,-373.75C251,-373.75 209,-373.75 209,-373.75 206,-373.75 203,-370.75 203,-367.75 203,-367.75 203,-361.75 203,-361.75 203,-358.75 206,-355.75 209,-355.75 209,-355.75 251,-355.75 251,-355.75 254,-355.75 257,-358.75 257,-361.75 257,-361.75 257,-367.75 257,-367.75 257,-370.75 254,-373.75 251,-373.75"/>
<text text-anchor="middle" x="230" y="-362.55" font-family="Helvetica,sans-Serif" font-size="9.00">styles.ts</text>
</a>
</g>
</g>
<!-- src/App.tsx&#45;&gt;src/styles.ts -->
<g id="edge4" class="edge">
<title>src/App.tsx&#45;&gt;src/styles.ts</title>
<path fill="none" stroke="#000000" stroke-width="2" stroke-opacity="0.200000" d="M180.08,-446.16C182.73,-444.39 185.13,-442.28 187,-439.75 203.27,-417.77 178.34,-400.43 195,-378.75 195.79,-377.72 196.66,-376.77 197.61,-375.89"/>
<polygon fill="#000000" fill-opacity="0.200000" stroke="#000000" stroke-width="2" stroke-opacity="0.200000" points="199.25,-377.29 202.82,-372.04 196.75,-373.92 199.25,-377.29"/>
</g>
<!-- src/containers/index.ts -->
<g id="node11" class="node">
<title>src/containers/index.ts</title>
<g id="a_node11"><a xlink:href="src/containers/index.ts" xlink:title="index.ts">
<path fill="#ddfeff" stroke="black" d="M251,-469.75C251,-469.75 209,-469.75 209,-469.75 206,-469.75 203,-466.75 203,-463.75 203,-463.75 203,-457.75 203,-457.75 203,-454.75 206,-451.75 209,-451.75 209,-451.75 251,-451.75 251,-451.75 254,-451.75 257,-454.75 257,-457.75 257,-457.75 257,-463.75 257,-463.75 257,-466.75 254,-469.75 251,-469.75"/>
<text text-anchor="middle" x="230" y="-458.55" font-family="Helvetica,sans-Serif" font-size="9.00">index.ts</text>
</a>
</g>
</g>
<!-- src/App.tsx&#45;&gt;src/containers/index.ts -->
<g id="edge6" class="edge">
<title>src/App.tsx&#45;&gt;src/containers/index.ts</title>
<path fill="none" stroke="#000000" stroke-width="2" stroke-opacity="0.200000" d="M180.23,-456.85C185.51,-457.27 191.13,-457.72 196.59,-458.16"/>
<polygon fill="#000000" fill-opacity="0.200000" stroke="#000000" stroke-width="2" stroke-opacity="0.200000" points="196.76,-460.28 202.91,-458.66 197.1,-456.09 196.76,-460.28"/>
</g>
<!-- src/hooks/index.ts -->
<g id="node12" class="node">
<title>src/hooks/index.ts</title>
<g id="a_node12"><a xlink:href="src/hooks/index.ts" xlink:title="index.ts">
<path fill="#ddfeff" stroke="black" d="M630,-629.75C630,-629.75 588,-629.75 588,-629.75 585,-629.75 582,-626.75 582,-623.75 582,-623.75 582,-617.75 582,-617.75 582,-614.75 585,-611.75 588,-611.75 588,-611.75 630,-611.75 630,-611.75 633,-611.75 636,-614.75 636,-617.75 636,-617.75 636,-623.75 636,-623.75 636,-626.75 633,-629.75 630,-629.75"/>
<text text-anchor="middle" x="609" y="-618.55" font-family="Helvetica,sans-Serif" font-size="9.00">index.ts</text>
</a>
</g>
</g>
<!-- src/App.tsx&#45;&gt;src/hooks/index.ts -->
<g id="edge7" class="edge">
<title>src/App.tsx&#45;&gt;src/hooks/index.ts</title>
<path fill="none" stroke="#000000" stroke-width="2" stroke-opacity="0.200000" d="M154.56,-464.02C156.42,-487.58 164.17,-550.69 195,-590.75 228.1,-633.76 244.73,-654.75 299,-654.75 299,-654.75 299,-654.75 454,-654.75 497.51,-654.75 546.34,-641.65 577.12,-631.71"/>
<polygon fill="#000000" fill-opacity="0.200000" stroke="#000000" stroke-width="2" stroke-opacity="0.200000" points="577.99,-633.64 583.03,-629.77 576.67,-629.65 577.99,-633.64"/>
</g>
<!-- src/styles.ts&#45;&gt;node_modules/styled&#45;components -->
<g id="edge45" class="edge">
<title>src/styles.ts&#45;&gt;node_modules/styled&#45;components</title>
<g id="a_edge45"><a xlink:title="not&#45;to&#45;dev&#45;dep">
<path fill="none" stroke="red" d="M235.49,-355.73C250.1,-327.82 299.21,-244.75 366,-244.75 366,-244.75 366,-244.75 454,-244.75 566.16,-244.75 696.97,-258.84 768.18,-267.71"/>
<polygon fill="red" stroke="red" points="768.25,-269.83 774.46,-268.5 768.77,-265.67 768.25,-269.83"/>
</a>
</g>
<text text-anchor="middle" x="476.96" y="-238.48" font-family="Helvetica,sans-Serif" font-size="9.00" fill="red">not&#45;to&#45;dev&#45;dep</text>
</g>
<!-- src/containers/Chat/index.tsx -->
<g id="node18" class="node">
<title>src/containers/Chat/index.tsx</title>
<g id="a_node18"><a xlink:href="src/containers/Chat/index.tsx" xlink:title="index.tsx">
<path fill="#bbfeff" stroke="black" d="M321,-415.75C321,-415.75 279,-415.75 279,-415.75 276,-415.75 273,-412.75 273,-409.75 273,-409.75 273,-403.75 273,-403.75 273,-400.75 276,-397.75 279,-397.75 279,-397.75 321,-397.75 321,-397.75 324,-397.75 327,-400.75 327,-403.75 327,-403.75 327,-409.75 327,-409.75 327,-412.75 324,-415.75 321,-415.75"/>
<text text-anchor="middle" x="300" y="-404.55" font-family="Helvetica,sans-Serif" font-size="9.00">index.tsx</text>
</a>
</g>
</g>
<!-- src/containers/index.ts&#45;&gt;src/containers/Chat/index.tsx -->
<g id="edge33" class="edge">
<title>src/containers/index.ts&#45;&gt;src/containers/Chat/index.tsx</title>
<path fill="none" stroke="#000000" stroke-width="2" stroke-opacity="0.200000" d="M250.69,-451.73C252.88,-450.49 255.03,-449.15 257,-447.75 268.07,-439.87 279,-429.08 286.93,-420.55"/>
<polygon fill="#000000" fill-opacity="0.200000" stroke="#000000" stroke-width="2" stroke-opacity="0.200000" points="288.52,-421.92 291.01,-416.07 285.42,-419.09 288.52,-421.92"/>
</g>
<!-- src/containers/Login/index.tsx -->
<g id="node20" class="node">
<title>src/containers/Login/index.tsx</title>
<g id="a_node20"><a xlink:href="src/containers/Login/index.tsx" xlink:title="index.tsx">
<path fill="#bbfeff" stroke="black" d="M321,-475.75C321,-475.75 279,-475.75 279,-475.75 276,-475.75 273,-472.75 273,-469.75 273,-469.75 273,-463.75 273,-463.75 273,-460.75 276,-457.75 279,-457.75 279,-457.75 321,-457.75 321,-457.75 324,-457.75 327,-460.75 327,-463.75 327,-463.75 327,-469.75 327,-469.75 327,-472.75 324,-475.75 321,-475.75"/>
<text text-anchor="middle" x="300" y="-464.55" font-family="Helvetica,sans-Serif" font-size="9.00">index.tsx</text>
</a>
</g>
</g>
<!-- src/containers/index.ts&#45;&gt;src/containers/Login/index.tsx -->
<g id="edge34" class="edge">
<title>src/containers/index.ts&#45;&gt;src/containers/Login/index.tsx</title>
<path fill="none" stroke="#000000" stroke-width="2" stroke-opacity="0.200000" d="M257.1,-463.05C260.12,-463.32 263.23,-463.59 266.33,-463.87"/>
<polygon fill="#000000" fill-opacity="0.200000" stroke="#000000" stroke-width="2" stroke-opacity="0.200000" points="266.48,-465.99 272.64,-464.42 266.84,-461.8 266.48,-465.99"/>
</g>
<!-- src/containers/Logout/index.tsx -->
<g id="node22" class="node">
<title>src/containers/Logout/index.tsx</title>
<g id="a_node22"><a xlink:href="src/containers/Logout/index.tsx" xlink:title="index.tsx">
<path fill="#bbfeff" stroke="black" d="M321,-535.75C321,-535.75 279,-535.75 279,-535.75 276,-535.75 273,-532.75 273,-529.75 273,-529.75 273,-523.75 273,-523.75 273,-520.75 276,-517.75 279,-517.75 279,-517.75 321,-517.75 321,-517.75 324,-517.75 327,-520.75 327,-523.75 327,-523.75 327,-529.75 327,-529.75 327,-532.75 324,-535.75 321,-535.75"/>
<text text-anchor="middle" x="300" y="-524.55" font-family="Helvetica,sans-Serif" font-size="9.00">index.tsx</text>
</a>
</g>
</g>
<!-- src/containers/index.ts&#45;&gt;src/containers/Logout/index.tsx -->
<g id="edge35" class="edge">
<title>src/containers/index.ts&#45;&gt;src/containers/Logout/index.tsx</title>
<path fill="none" stroke="#000000" stroke-width="2" stroke-opacity="0.200000" d="M253.07,-469.92C254.52,-471.06 255.86,-472.34 257,-473.75 265.95,-484.81 256.68,-493.21 265,-504.75 267.6,-508.36 270.99,-511.52 274.62,-514.25"/>
<polygon fill="#000000" fill-opacity="0.200000" stroke="#000000" stroke-width="2" stroke-opacity="0.200000" points="273.53,-516.05 279.67,-517.69 275.9,-512.58 273.53,-516.05"/>
</g>
<!-- src/hooks/useFirebase.ts -->
<g id="node24" class="node">
<title>src/hooks/useFirebase.ts</title>
<g id="a_node24"><a xlink:href="src/hooks/useFirebase.ts" xlink:title="useFirebase.ts">
<path fill="#ddfeff" stroke="black" d="M733,-629.75C733,-629.75 666,-629.75 666,-629.75 663,-629.75 660,-626.75 660,-623.75 660,-623.75 660,-617.75 660,-617.75 660,-614.75 663,-611.75 666,-611.75 666,-611.75 733,-611.75 733,-611.75 736,-611.75 739,-614.75 739,-617.75 739,-617.75 739,-623.75 739,-623.75 739,-626.75 736,-629.75 733,-629.75"/>
<text text-anchor="middle" x="699.5" y="-618.55" font-family="Helvetica,sans-Serif" font-size="9.00">useFirebase.ts</text>
</a>
</g>
</g>
<!-- src/hooks/index.ts&#45;&gt;src/hooks/useFirebase.ts -->
<g id="edge36" class="edge">
<title>src/hooks/index.ts&#45;&gt;src/hooks/useFirebase.ts</title>
<path fill="none" stroke="#000000" stroke-width="2" stroke-opacity="0.200000" d="M636.07,-620.75C641.66,-620.75 647.71,-620.75 653.77,-620.75"/>
<polygon fill="#000000" fill-opacity="0.200000" stroke="#000000" stroke-width="2" stroke-opacity="0.200000" points="653.82,-622.85 659.82,-620.75 653.82,-618.65 653.82,-622.85"/>
</g>
<!-- src/assets/pink.jpg -->
<g id="node13" class="node">
<title>src/assets/pink.jpg</title>
<g id="a_node13"><a xlink:href="src/assets/pink.jpg" xlink:title="pink.jpg">
<path fill="#ffffcc" stroke="black" d="M474,-415.75C474,-415.75 432,-415.75 432,-415.75 429,-415.75 426,-412.75 426,-409.75 426,-409.75 426,-403.75 426,-403.75 426,-400.75 429,-397.75 432,-397.75 432,-397.75 474,-397.75 474,-397.75 477,-397.75 480,-400.75 480,-403.75 480,-403.75 480,-409.75 480,-409.75 480,-412.75 477,-415.75 474,-415.75"/>
<text text-anchor="middle" x="453" y="-404.55" font-family="Helvetica,sans-Serif" font-size="9.00">pink.jpg</text>
</a>
</g>
</g>
<!-- src/components/Button/index.ts -->
<g id="node14" class="node">
<title>src/components/Button/index.ts</title>
<g id="a_node14"><a xlink:href="src/components/Button/index.ts" xlink:title="index.ts">
<path fill="#ddfeff" stroke="black" d="M552,-483.75C552,-483.75 510,-483.75 510,-483.75 507,-483.75 504,-480.75 504,-477.75 504,-477.75 504,-471.75 504,-471.75 504,-468.75 507,-465.75 510,-465.75 510,-465.75 552,-465.75 552,-465.75 555,-465.75 558,-468.75 558,-471.75 558,-471.75 558,-477.75 558,-477.75 558,-480.75 555,-483.75 552,-483.75"/>
<text text-anchor="middle" x="531" y="-472.55" font-family="Helvetica,sans-Serif" font-size="9.00">index.ts</text>
</a>
</g>
</g>
<!-- src/components/Button/index.ts&#45;&gt;node_modules/styled&#45;components -->
<g id="edge8" class="edge">
<title>src/components/Button/index.ts&#45;&gt;node_modules/styled&#45;components</title>
<g id="a_edge8"><a xlink:title="not&#45;to&#45;dev&#45;dep">
<path fill="none" stroke="red" d="M549.37,-465.61C573.98,-452.69 620.38,-428.34 660,-407.75 702.16,-385.84 727.98,-397.82 755,-358.75 772.56,-333.36 742.72,-313.03 763,-289.75 764.77,-287.72 766.77,-285.95 768.94,-284.4"/>
<polygon fill="red" stroke="red" points="770.23,-286.08 774.29,-281.19 768.06,-282.48 770.23,-286.08"/>
</a>
</g>
<text text-anchor="middle" x="643.27" y="-394.47" font-family="Helvetica,sans-Serif" font-size="9.00" fill="red">not&#45;to&#45;dev&#45;dep</text>
</g>
<!-- src/components/Message/index.tsx -->
<g id="node15" class="node">
<title>src/components/Message/index.tsx</title>
<g id="a_node15"><a xlink:href="src/components/Message/index.tsx" xlink:title="index.tsx">
<path fill="#bbfeff" stroke="black" d="M552,-543.75C552,-543.75 510,-543.75 510,-543.75 507,-543.75 504,-540.75 504,-537.75 504,-537.75 504,-531.75 504,-531.75 504,-528.75 507,-525.75 510,-525.75 510,-525.75 552,-525.75 552,-525.75 555,-525.75 558,-528.75 558,-531.75 558,-531.75 558,-537.75 558,-537.75 558,-540.75 555,-543.75 552,-543.75"/>
<text text-anchor="middle" x="531" y="-532.55" font-family="Helvetica,sans-Serif" font-size="9.00">index.tsx</text>
</a>
</g>
</g>
<!-- src/components/Message/index.tsx&#45;&gt;node_modules/react -->
<g id="edge10" class="edge">
<title>src/components/Message/index.tsx&#45;&gt;node_modules/react</title>
<path fill="none" stroke="#000000" stroke-opacity="0.200000" d="M548.37,-525.7C554.24,-522.07 560.71,-517.59 566,-512.75 671.07,-416.47 643.88,-337.99 763,-259.75 770.7,-254.69 780.01,-251.34 788.9,-249.12"/>
<polygon fill="#000000" fill-opacity="0.200000" stroke="#000000" stroke-opacity="0.200000" points="789.57,-251.12 794.96,-247.75 788.65,-247.02 789.57,-251.12"/>
</g>
<!-- src/components/Message/index.tsx&#45;&gt;src/hooks/index.ts -->
<g id="edge11" class="edge">
<title>src/components/Message/index.tsx&#45;&gt;src/hooks/index.ts</title>
<path fill="none" stroke="#000000" stroke-width="2" stroke-opacity="0.200000" d="M540.13,-543.95C553.5,-559.08 580.2,-589.29 595.83,-606.98"/>
<polygon fill="#000000" fill-opacity="0.200000" stroke="#000000" stroke-width="2" stroke-opacity="0.200000" points="594.38,-608.51 599.93,-611.61 597.53,-605.73 594.38,-608.51"/>
</g>
<!-- src/components/Message/styles.ts -->
<g id="node16" class="node">
<title>src/components/Message/styles.ts</title>
<g id="a_node16"><a xlink:href="src/components/Message/styles.ts" xlink:title="styles.ts">
<path fill="#ddfeff" stroke="black" d="M630,-543.75C630,-543.75 588,-543.75 588,-543.75 585,-543.75 582,-540.75 582,-537.75 582,-537.75 582,-531.75 582,-531.75 582,-528.75 585,-525.75 588,-525.75 588,-525.75 630,-525.75 630,-525.75 633,-525.75 636,-528.75 636,-531.75 636,-531.75 636,-537.75 636,-537.75 636,-540.75 633,-543.75 630,-543.75"/>
<text text-anchor="middle" x="609" y="-532.55" font-family="Helvetica,sans-Serif" font-size="9.00">styles.ts</text>
</a>
</g>
</g>
<!-- src/components/Message/index.tsx&#45;&gt;src/components/Message/styles.ts -->
<g id="edge9" class="edge">
<title>src/components/Message/index.tsx&#45;&gt;src/components/Message/styles.ts</title>
<path fill="none" stroke="#000000" stroke-width="2" stroke-opacity="0.200000" d="M558.15,-534.75C563.77,-534.75 569.76,-534.75 575.58,-534.75"/>
<polygon fill="#000000" fill-opacity="0.200000" stroke="#000000" stroke-width="2" stroke-opacity="0.200000" points="575.8,-536.85 581.8,-534.75 575.8,-532.65 575.8,-536.85"/>
</g>
<!-- src/components/Message/styles.ts&#45;&gt;node_modules/styled&#45;components -->
<g id="edge12" class="edge">
<title>src/components/Message/styles.ts&#45;&gt;node_modules/styled&#45;components</title>
<g id="a_edge12"><a xlink:title="not&#45;to&#45;dev&#45;dep">
<path fill="none" stroke="red" d="M628.07,-525.63C660.24,-508.28 726.72,-467.16 755,-410.75 767.08,-386.66 745.81,-310.5 763,-289.75 764.75,-287.63 766.76,-285.79 768.96,-284.19"/>
<polygon fill="red" stroke="red" points="770.35,-285.81 774.38,-280.89 768.17,-282.22 770.35,-285.81"/>
</a>
</g>
<text text-anchor="middle" x="725" y="-403.54" font-family="Helvetica,sans-Serif" font-size="9.00" fill="red">not&#45;to&#45;dev&#45;dep</text>
</g>
<!-- src/components/index.tsx -->
<g id="node17" class="node">
<title>src/components/index.tsx</title>
<g id="a_node17"><a xlink:href="src/components/index.tsx" xlink:title="index.tsx">
<path fill="#bbfeff" stroke="black" d="M474,-556.75C474,-556.75 432,-556.75 432,-556.75 429,-556.75 426,-553.75 426,-550.75 426,-550.75 426,-544.75 426,-544.75 426,-541.75 429,-538.75 432,-538.75 432,-538.75 474,-538.75 474,-538.75 477,-538.75 480,-541.75 480,-544.75 480,-544.75 480,-550.75 480,-550.75 480,-553.75 477,-556.75 474,-556.75"/>
<text text-anchor="middle" x="453" y="-545.55" font-family="Helvetica,sans-Serif" font-size="9.00">index.tsx</text>
</a>
</g>
</g>
<!-- src/components/index.tsx&#45;&gt;src/components/Button/index.ts -->
<g id="edge13" class="edge">
<title>src/components/index.tsx&#45;&gt;src/components/Button/index.ts</title>
<path fill="none" stroke="#000000" stroke-width="2" stroke-opacity="0.200000" d="M463.63,-538.5C476.8,-525.85 500.55,-503.04 515.78,-488.41"/>
<polygon fill="#000000" fill-opacity="0.200000" stroke="#000000" stroke-width="2" stroke-opacity="0.200000" points="517.34,-489.82 520.21,-484.15 514.43,-486.79 517.34,-489.82"/>
</g>
<!-- src/components/index.tsx&#45;&gt;src/components/Message/index.tsx -->
<g id="edge14" class="edge">
<title>src/components/index.tsx&#45;&gt;src/components/Message/index.tsx</title>
<path fill="none" stroke="#000000" stroke-width="2" stroke-opacity="0.200000" d="M480.15,-543.28C485.77,-542.32 491.76,-541.29 497.58,-540.29"/>
<polygon fill="#000000" fill-opacity="0.200000" stroke="#000000" stroke-width="2" stroke-opacity="0.200000" points="498.24,-542.31 503.8,-539.23 497.53,-538.17 498.24,-542.31"/>
</g>
<!-- src/containers/Chat/index.tsx&#45;&gt;node_modules/firebase -->
<g id="edge16" class="edge">
<title>src/containers/Chat/index.tsx&#45;&gt;node_modules/firebase</title>
<path fill="none" stroke="#000000" stroke-opacity="0.200000" d="M322.2,-397.71C327.9,-395.53 334.12,-393.36 340,-391.75 520.42,-342.37 572.04,-360.67 755,-321.75 756.84,-321.36 773.19,-317.15 789.15,-313.02"/>
<polygon fill="#000000" fill-opacity="0.200000" stroke="#000000" stroke-opacity="0.200000" points="789.7,-315.04 794.98,-311.5 788.65,-310.98 789.7,-315.04"/>
</g>
<!-- src/containers/Chat/index.tsx&#45;&gt;node_modules/react -->
<g id="edge17" class="edge">
<title>src/containers/Chat/index.tsx&#45;&gt;node_modules/react</title>
<path fill="none" stroke="#000000" stroke-opacity="0.200000" d="M301.44,-397.68C303.33,-362.44 312.04,-235.27 340,-208.75 376.48,-174.14 401.72,-192.75 452,-192.75 452,-192.75 452,-192.75 610,-192.75 674.84,-192.75 703.72,-169.08 755,-208.75 762.9,-214.86 755.56,-223.09 763,-229.75 770.12,-236.12 779.6,-239.85 788.83,-242.02"/>
<polygon fill="#000000" fill-opacity="0.200000" stroke="#000000" stroke-opacity="0.200000" points="788.53,-244.1 794.83,-243.22 789.36,-239.98 788.53,-244.1"/>
</g>
<!-- src/containers/Chat/index.tsx&#45;&gt;src/hooks/index.ts -->
<g id="edge19" class="edge">
<title>src/containers/Chat/index.tsx&#45;&gt;src/hooks/index.ts</title>
<path fill="none" stroke="#000000" stroke-width="2" stroke-opacity="0.200000" d="M308.8,-415.93C314.87,-423.63 322.92,-435.19 327,-446.75 336.44,-473.5 322.13,-551.71 340,-573.75 362.93,-602.03 382.42,-591.06 418,-598.75 433.02,-601.99 525.64,-612.05 575.79,-617.37"/>
<polygon fill="#000000" fill-opacity="0.200000" stroke="#000000" stroke-width="2" stroke-opacity="0.200000" points="575.8,-619.48 581.99,-618.02 576.24,-615.3 575.8,-619.48"/>
</g>
<!-- src/containers/Chat/index.tsx&#45;&gt;src/components/index.tsx -->
<g id="edge18" class="edge">
<title>src/containers/Chat/index.tsx&#45;&gt;src/components/index.tsx</title>
<path fill="none" stroke="#000000" stroke-width="2" stroke-opacity="0.200000" d="M308.78,-415.94C314.83,-423.64 322.88,-435.21 327,-446.75 335.87,-471.59 320.35,-547.15 340,-564.75 363.17,-585.51 379.46,-570.7 410,-564.75 416.14,-563.55 422.51,-561.46 428.39,-559.14"/>
<polygon fill="#000000" fill-opacity="0.200000" stroke="#000000" stroke-width="2" stroke-opacity="0.200000" points="429.34,-561.02 434.07,-556.78 427.72,-557.15 429.34,-561.02"/>
</g>
<!-- src/containers/Chat/styles.ts -->
<g id="node19" class="node">
<title>src/containers/Chat/styles.ts</title>
<g id="a_node19"><a xlink:href="src/containers/Chat/styles.ts" xlink:title="styles.ts">
<path fill="#ddfeff" stroke="black" d="M388,-415.75C388,-415.75 346,-415.75 346,-415.75 343,-415.75 340,-412.75 340,-409.75 340,-409.75 340,-403.75 340,-403.75 340,-400.75 343,-397.75 346,-397.75 346,-397.75 388,-397.75 388,-397.75 391,-397.75 394,-400.75 394,-403.75 394,-403.75 394,-409.75 394,-409.75 394,-412.75 391,-415.75 388,-415.75"/>
<text text-anchor="middle" x="367" y="-404.55" font-family="Helvetica,sans-Serif" font-size="9.00">styles.ts</text>
</a>
</g>
</g>
<!-- src/containers/Chat/index.tsx&#45;&gt;src/containers/Chat/styles.ts -->
<g id="edge15" class="edge">
<title>src/containers/Chat/index.tsx&#45;&gt;src/containers/Chat/styles.ts</title>
<path fill="none" stroke="#000000" stroke-width="2" stroke-opacity="0.200000" d="M327.06,-406.75C329.32,-406.75 331.61,-406.75 333.9,-406.75"/>
<polygon fill="#000000" fill-opacity="0.200000" stroke="#000000" stroke-width="2" stroke-opacity="0.200000" points="333.93,-408.85 339.93,-406.75 333.93,-404.65 333.93,-408.85"/>
</g>
<!-- src/containers/Chat/styles.ts&#45;&gt;node_modules/styled&#45;components -->
<g id="edge22" class="edge">
<title>src/containers/Chat/styles.ts&#45;&gt;node_modules/styled&#45;components</title>
<g id="a_edge22"><a xlink:title="not&#45;to&#45;dev&#45;dep">
<path fill="none" stroke="red" d="M394.12,-398.03C400.24,-394.79 406.1,-390.46 410,-384.75 419.08,-371.46 406.8,-324.31 418,-312.75 453,-276.64 479.72,-296.75 530,-296.75 530,-296.75 530,-296.75 610,-296.75 664.06,-296.75 725.49,-289.52 768.07,-283.35"/>
<polygon fill="red" stroke="red" points="768.58,-285.39 774.22,-282.44 767.97,-281.24 768.58,-285.39"/>
</a>
</g>
<text text-anchor="middle" x="580" y="-289.55" font-family="Helvetica,sans-Serif" font-size="9.00" fill="red">not&#45;to&#45;dev&#45;dep</text>
</g>
<!-- src/containers/Chat/styles.ts&#45;&gt;src/assets/pink.jpg -->
<g id="edge20" class="edge">
<title>src/containers/Chat/styles.ts&#45;&gt;src/assets/pink.jpg</title>
<path fill="none" stroke="#000000" stroke-width="2" stroke-opacity="0.200000" d="M394.12,-406.75C402.18,-406.75 411.15,-406.75 419.58,-406.75"/>
<polygon fill="#000000" fill-opacity="0.200000" stroke="#000000" stroke-width="2" stroke-opacity="0.200000" points="419.9,-408.85 425.9,-406.75 419.9,-404.65 419.9,-408.85"/>
</g>
<!-- src/containers/Chat/styles.ts&#45;&gt;src/components/index.tsx -->
<g id="edge21" class="edge">
<title>src/containers/Chat/styles.ts&#45;&gt;src/components/index.tsx</title>
<path fill="none" stroke="#000000" stroke-width="2" stroke-opacity="0.200000" d="M379.99,-415.85C389.19,-423.33 401.68,-434.63 410,-446.75 429,-474.41 441.78,-512.01 447.88,-532.65"/>
<polygon fill="#000000" fill-opacity="0.200000" stroke="#000000" stroke-width="2" stroke-opacity="0.200000" points="445.88,-533.29 449.55,-538.48 449.91,-532.13 445.88,-533.29"/>
</g>
<!-- src/containers/Login/index.tsx&#45;&gt;node_modules/react -->
<g id="edge24" class="edge">
<title>src/containers/Login/index.tsx&#45;&gt;node_modules/react</title>
<path fill="none" stroke="#000000" stroke-opacity="0.200000" d="M315.23,-457.72C319.67,-454.2 324.15,-449.79 327,-444.75 344.74,-413.4 325.9,-397.9 340,-364.75 372.02,-289.5 370.22,-218.75 452,-218.75 452,-218.75 452,-218.75 610,-218.75 673.72,-218.75 747.45,-230.57 788.72,-238.27"/>
<polygon fill="#000000" fill-opacity="0.200000" stroke="#000000" stroke-opacity="0.200000" points="788.53,-240.37 794.81,-239.43 789.31,-236.25 788.53,-240.37"/>
</g>
<!-- src/containers/Login/index.tsx&#45;&gt;src/hooks/index.ts -->
<g id="edge26" class="edge">
<title>src/containers/Login/index.tsx&#45;&gt;src/hooks/index.ts</title>
<path fill="none" stroke="#000000" stroke-width="2" stroke-opacity="0.200000" d="M308.7,-475.96C314.71,-483.68 322.73,-495.26 327,-506.75 334.49,-526.93 324.34,-587.97 340,-602.75 356.8,-618.6 508.09,-620.7 575.66,-620.84"/>
<polygon fill="#000000" fill-opacity="0.200000" stroke="#000000" stroke-width="2" stroke-opacity="0.200000" points="575.93,-622.94 581.93,-620.84 575.93,-618.74 575.93,-622.94"/>
</g>
<!-- src/containers/Login/index.tsx&#45;&gt;src/components/index.tsx -->
<g id="edge25" class="edge">
<title>src/containers/Login/index.tsx&#45;&gt;src/components/index.tsx</title>
<path fill="none" stroke="#000000" stroke-width="2" stroke-opacity="0.200000" d="M308.53,-476.03C314.45,-483.79 322.42,-495.38 327,-506.75 338.49,-535.29 316.29,-555.14 340,-574.75 363.98,-594.58 380.15,-583.52 410,-574.75 419.6,-571.93 429.07,-566.17 436.59,-560.69"/>
<polygon fill="#000000" fill-opacity="0.200000" stroke="#000000" stroke-width="2" stroke-opacity="0.200000" points="437.96,-562.29 441.46,-556.98 435.41,-558.95 437.96,-562.29"/>
</g>
<!-- src/containers/Login/styles.ts -->
<g id="node21" class="node">
<title>src/containers/Login/styles.ts</title>
<g id="a_node21"><a xlink:href="src/containers/Login/styles.ts" xlink:title="styles.ts">
<path fill="#ddfeff" stroke="black" d="M388,-475.75C388,-475.75 346,-475.75 346,-475.75 343,-475.75 340,-472.75 340,-469.75 340,-469.75 340,-463.75 340,-463.75 340,-460.75 343,-457.75 346,-457.75 346,-457.75 388,-457.75 388,-457.75 391,-457.75 394,-460.75 394,-463.75 394,-463.75 394,-469.75 394,-469.75 394,-472.75 391,-475.75 388,-475.75"/>
<text text-anchor="middle" x="367" y="-464.55" font-family="Helvetica,sans-Serif" font-size="9.00">styles.ts</text>
</a>
</g>
</g>
<!-- src/containers/Login/index.tsx&#45;&gt;src/containers/Login/styles.ts -->
<g id="edge23" class="edge">
<title>src/containers/Login/index.tsx&#45;&gt;src/containers/Login/styles.ts</title>
<path fill="none" stroke="#000000" stroke-width="2" stroke-opacity="0.200000" d="M327.06,-466.75C329.32,-466.75 331.61,-466.75 333.9,-466.75"/>
<polygon fill="#000000" fill-opacity="0.200000" stroke="#000000" stroke-width="2" stroke-opacity="0.200000" points="333.93,-468.85 339.93,-466.75 333.93,-464.65 333.93,-468.85"/>
</g>
<!-- src/containers/Login/styles.ts&#45;&gt;node_modules/styled&#45;components -->
<g id="edge27" class="edge">
<title>src/containers/Login/styles.ts&#45;&gt;node_modules/styled&#45;components</title>
<g id="a_edge27"><a xlink:title="not&#45;to&#45;dev&#45;dep">
<path fill="none" stroke="red" d="M394.16,-458.06C400.28,-454.82 406.13,-450.48 410,-444.75 430,-415.14 396.21,-393.07 418,-364.75 450.42,-322.62 476.84,-322.75 530,-322.75 530,-322.75 530,-322.75 610,-322.75 675.25,-322.75 698.59,-332.55 755,-299.75 759.92,-296.89 758.22,-292.84 763,-289.75 764.9,-288.52 766.9,-287.39 768.96,-286.35"/>
<polygon fill="red" stroke="red" points="769.96,-288.2 774.56,-283.81 768.23,-284.38 769.96,-288.2"/>
</a>
</g>
<text text-anchor="middle" x="580.01" y="-315.55" font-family="Helvetica,sans-Serif" font-size="9.00" fill="red">not&#45;to&#45;dev&#45;dep</text>
</g>
<!-- src/containers/Logout/index.tsx&#45;&gt;node_modules/react -->
<g id="edge29" class="edge">
<title>src/containers/Logout/index.tsx&#45;&gt;node_modules/react</title>
<path fill="none" stroke="#000000" stroke-opacity="0.200000" d="M315.65,-517.58C320.01,-514.11 324.33,-509.76 327,-504.75 351.79,-458.17 320.01,-435.58 340,-386.75 361.22,-334.91 368.97,-314.85 418,-287.75 481.61,-252.59 704.98,-246.18 788.85,-245.01"/>
<polygon fill="#000000" fill-opacity="0.200000" stroke="#000000" stroke-opacity="0.200000" points="788.91,-247.11 794.88,-244.93 788.86,-242.91 788.91,-247.11"/>
</g>
<!-- src/containers/Logout/index.tsx&#45;&gt;src/hooks/index.ts -->
<g id="edge31" class="edge">
<title>src/containers/Logout/index.tsx&#45;&gt;src/hooks/index.ts</title>
<path fill="none" stroke="#000000" stroke-width="2" stroke-opacity="0.200000" d="M323.12,-535.88C324.56,-537.03 325.88,-538.32 327,-539.75 343.28,-560.56 322.18,-578.25 340,-597.75 364.56,-624.62 382.03,-617.13 418,-622.75 472.84,-631.32 537.67,-627.76 575.67,-624.31"/>
<polygon fill="#000000" fill-opacity="0.200000" stroke="#000000" stroke-width="2" stroke-opacity="0.200000" points="576.21,-626.37 581.99,-623.72 575.82,-622.19 576.21,-626.37"/>
</g>
<!-- src/containers/Logout/index.tsx&#45;&gt;src/components/index.tsx -->
<g id="edge30" class="edge">
<title>src/containers/Logout/index.tsx&#45;&gt;src/components/index.tsx</title>
<path fill="none" stroke="#000000" stroke-width="2" stroke-opacity="0.200000" d="M323.06,-535.93C324.51,-537.07 325.85,-538.34 327,-539.75 341.22,-557.22 322.14,-575.01 340,-588.75 364.66,-607.72 381.19,-600.48 410,-588.75 423.22,-583.37 434.55,-571.6 442.09,-562.05"/>
<polygon fill="#000000" fill-opacity="0.200000" stroke="#000000" stroke-width="2" stroke-opacity="0.200000" points="443.95,-563.08 445.89,-557.02 440.59,-560.55 443.95,-563.08"/>
</g>
<!-- src/containers/Logout/styles.ts -->
<g id="node23" class="node">
<title>src/containers/Logout/styles.ts</title>
<g id="a_node23"><a xlink:href="src/containers/Logout/styles.ts" xlink:title="styles.ts">
<path fill="#ddfeff" stroke="black" d="M388,-535.75C388,-535.75 346,-535.75 346,-535.75 343,-535.75 340,-532.75 340,-529.75 340,-529.75 340,-523.75 340,-523.75 340,-520.75 343,-517.75 346,-517.75 346,-517.75 388,-517.75 388,-517.75 391,-517.75 394,-520.75 394,-523.75 394,-523.75 394,-529.75 394,-529.75 394,-532.75 391,-535.75 388,-535.75"/>
<text text-anchor="middle" x="367" y="-524.55" font-family="Helvetica,sans-Serif" font-size="9.00">styles.ts</text>
</a>
</g>
</g>
<!-- src/containers/Logout/index.tsx&#45;&gt;src/containers/Logout/styles.ts -->
<g id="edge28" class="edge">
<title>src/containers/Logout/index.tsx&#45;&gt;src/containers/Logout/styles.ts</title>
<path fill="none" stroke="#000000" stroke-width="2" stroke-opacity="0.200000" d="M327.06,-526.75C329.32,-526.75 331.61,-526.75 333.9,-526.75"/>
<polygon fill="#000000" fill-opacity="0.200000" stroke="#000000" stroke-width="2" stroke-opacity="0.200000" points="333.93,-528.85 339.93,-526.75 333.93,-524.65 333.93,-528.85"/>
</g>
<!-- src/containers/Logout/styles.ts&#45;&gt;node_modules/styled&#45;components -->
<g id="edge32" class="edge">
<title>src/containers/Logout/styles.ts&#45;&gt;node_modules/styled&#45;components</title>
<g id="a_edge32"><a xlink:title="not&#45;to&#45;dev&#45;dep">
<path fill="none" stroke="red" d="M394.29,-518.14C400.4,-514.9 406.22,-510.54 410,-504.75 424.36,-482.74 400.59,-406.44 418,-386.75 468.52,-329.61 699.62,-374.19 755,-321.75 765.64,-311.67 752.68,-300.16 763,-289.75 764.85,-287.88 766.91,-286.23 769.11,-284.79"/>
<polygon fill="red" stroke="red" points="770.28,-286.53 774.46,-281.75 768.21,-282.88 770.28,-286.53"/>
</a>
</g>
<text text-anchor="middle" x="552.6" y="-345.36" font-family="Helvetica,sans-Serif" font-size="9.00" fill="red">not&#45;to&#45;dev&#45;dep</text>
</g>
<!-- src/hooks/useFirebase.ts&#45;&gt;node_modules/firebase -->
<g id="edge37" class="edge">
<title>src/hooks/useFirebase.ts&#45;&gt;node_modules/firebase</title>
<path fill="none" stroke="#000000" stroke-opacity="0.200000" d="M706.36,-611.51C718.17,-592.33 744.57,-546.41 755,-503.75 759.86,-483.87 750.12,-335.65 763,-319.75 769.29,-311.98 779.02,-307.93 788.73,-305.91"/>
<polygon fill="#000000" fill-opacity="0.200000" stroke="#000000" stroke-opacity="0.200000" points="789.18,-307.96 794.75,-304.89 788.48,-303.82 789.18,-307.96"/>
</g>
<!-- src/hooks/useFirebase.ts&#45;&gt;node_modules/react&#45;firebase&#45;hooks -->
<g id="edge38" class="edge">
<title>src/hooks/useFirebase.ts&#45;&gt;node_modules/react&#45;firebase&#45;hooks</title>
<path fill="none" stroke="#000000" stroke-opacity="0.200000" d="M704.94,-611.74C714.49,-592.22 737.55,-544.54 755,-503.75 779.05,-447.51 804.59,-379.35 815.52,-349.71"/>
<polygon fill="#000000" fill-opacity="0.200000" stroke="#000000" stroke-opacity="0.200000" points="817.53,-350.35 817.63,-343.99 813.58,-348.9 817.53,-350.35"/>
</g>
<!-- src/index.css -->
<g id="node25" class="node">
<title>src/index.css</title>
<g id="a_node25"><a xlink:href="src/index.css" xlink:title="index.css">
<path fill="#ffffcc" stroke="black" d="M175,-433.75C175,-433.75 131,-433.75 131,-433.75 128,-433.75 125,-430.75 125,-427.75 125,-427.75 125,-421.75 125,-421.75 125,-418.75 128,-415.75 131,-415.75 131,-415.75 175,-415.75 175,-415.75 178,-415.75 181,-418.75 181,-421.75 181,-421.75 181,-427.75 181,-427.75 181,-430.75 178,-433.75 175,-433.75"/>
<text text-anchor="middle" x="153" y="-422.55" font-family="Helvetica,sans-Serif" font-size="9.00">index.css</text>
</a>
</g>
</g>
<!-- src/index.tsx -->
<g id="node26" class="node">
<title>src/index.tsx</title>
<g id="a_node26"><a xlink:href="src/index.tsx" xlink:title="index.tsx">
<path fill="#bbfeff" stroke="black" d="M82,-433.75C82,-433.75 40,-433.75 40,-433.75 37,-433.75 34,-430.75 34,-427.75 34,-427.75 34,-421.75 34,-421.75 34,-418.75 37,-415.75 40,-415.75 40,-415.75 82,-415.75 82,-415.75 85,-415.75 88,-418.75 88,-421.75 88,-421.75 88,-427.75 88,-427.75 88,-430.75 85,-433.75 82,-433.75"/>
<text text-anchor="middle" x="61" y="-422.55" font-family="Helvetica,sans-Serif" font-size="9.00">index.tsx</text>
</a>
</g>
</g>
<!-- src/index.tsx&#45;&gt;node_modules/react -->
<g id="edge41" class="edge">
<title>src/index.tsx&#45;&gt;node_modules/react</title>
<path fill="none" stroke="#000000" stroke-opacity="0.200000" d="M88.01,-421.33C94.9,-419.13 101.64,-415.56 106,-409.75 124.64,-384.94 98.16,-153.74 119,-130.75 152.18,-94.15 179.6,-114.75 229,-114.75 229,-114.75 229,-114.75 610,-114.75 674.84,-114.75 709.83,-84.24 755,-130.75 770.38,-146.58 748.79,-212.86 763,-229.75 769.43,-237.4 779.2,-241.42 788.9,-243.45"/>
<polygon fill="#000000" fill-opacity="0.200000" stroke="#000000" stroke-opacity="0.200000" points="788.63,-245.54 794.9,-244.48 789.34,-241.4 788.63,-245.54"/>
</g>
<!-- src/index.tsx&#45;&gt;node_modules/react&#45;dom -->
<g id="edge42" class="edge">
<title>src/index.tsx&#45;&gt;node_modules/react&#45;dom</title>
<path fill="none" stroke="#000000" stroke-opacity="0.200000" d="M88.03,-421.35C94.93,-419.15 101.66,-415.57 106,-409.75 128,-380.24 94.38,-106.11 119,-78.75 152.05,-42.03 179.6,-62.75 229,-62.75 229,-62.75 229,-62.75 610,-62.75 676.73,-62.75 712.28,-50.48 755,-101.75 768.99,-118.54 748.93,-183.03 763,-199.75 768.82,-206.67 777.38,-210.62 786.14,-212.82"/>
<polygon fill="#000000" fill-opacity="0.200000" stroke="#000000" stroke-opacity="0.200000" points="785.91,-214.91 792.21,-214.07 786.76,-210.8 785.91,-214.91"/>
</g>
<!-- src/index.tsx&#45;&gt;src/App.tsx -->
<g id="edge39" class="edge">
<title>src/index.tsx&#45;&gt;src/App.tsx</title>
<path fill="none" stroke="#000000" stroke-width="2" stroke-opacity="0.200000" d="M88.03,-433.43C98.02,-436.76 109.53,-440.59 120.01,-444.09"/>
<polygon fill="#000000" fill-opacity="0.200000" stroke="#000000" stroke-width="2" stroke-opacity="0.200000" points="119.36,-446.08 125.71,-445.99 120.69,-442.1 119.36,-446.08"/>
</g>
<!-- src/index.tsx&#45;&gt;src/index.css -->
<g id="edge40" class="edge">
<title>src/index.tsx&#45;&gt;src/index.css</title>
<path fill="none" stroke="#000000" stroke-width="2" stroke-opacity="0.200000" d="M88.03,-424.75C97.58,-424.75 108.51,-424.75 118.61,-424.75"/>
<polygon fill="#000000" fill-opacity="0.200000" stroke="#000000" stroke-width="2" stroke-opacity="0.200000" points="118.77,-426.85 124.77,-424.75 118.77,-422.65 118.77,-426.85"/>
</g>
<!-- src/react&#45;app&#45;env.d.ts -->
<g id="node27" class="node">
<title>src/react&#45;app&#45;env.d.ts</title>
<g id="a_node27"><a xlink:href="src/react-app-env.d.ts" xlink:title="react&#45;app&#45;env.d.ts">
<path fill="#ddfeff" stroke="black" d="M100,-403.75C100,-403.75 22,-403.75 22,-403.75 19,-403.75 16,-400.75 16,-397.75 16,-397.75 16,-391.75 16,-391.75 16,-388.75 19,-385.75 22,-385.75 22,-385.75 100,-385.75 100,-385.75 103,-385.75 106,-388.75 106,-391.75 106,-391.75 106,-397.75 106,-397.75 106,-400.75 103,-403.75 100,-403.75"/>
<text text-anchor="middle" x="61" y="-392.55" font-family="Helvetica,sans-Serif" font-size="9.00">react&#45;app&#45;env.d.ts</text>
</a>
</g>
</g>
<!-- src/react&#45;app&#45;env.d.ts&#45;&gt;react&#45;scripts -->
<g id="edge43" class="edge">
<title>src/react&#45;app&#45;env.d.ts&#45;&gt;react&#45;scripts</title>
<g id="a_edge43"><a xlink:title="not&#45;to&#45;unresolvable">
<path fill="none" stroke="red" stroke-width="2" d="M99.79,-385.72C102.14,-384.05 104.26,-382.08 106,-379.75 127.74,-350.61 99.82,-83.64 119,-52.75 120.1,-50.98 121.44,-49.36 122.95,-47.9"/>
<polygon fill="red" stroke="red" stroke-width="2" points="124.51,-49.34 127.87,-43.95 121.88,-46.07 124.51,-49.34"/>
</a>
</g>
<text text-anchor="middle" x="73.41" y="-207.53" font-family="Helvetica,sans-Serif" font-size="9.00" fill="red">not&#45;to&#45;unresolvable</text>
</g>
<!-- src/setupTests.ts -->
<g id="node28" class="node">
<title>src/setupTests.ts</title>
<g id="a_node28"><a xlink:href="src/setupTests.ts" xlink:title="setupTests.ts">
<path fill="#ddfeff" stroke="black" d="M91.5,-373.75C91.5,-373.75 30.5,-373.75 30.5,-373.75 27.5,-373.75 24.5,-370.75 24.5,-367.75 24.5,-367.75 24.5,-361.75 24.5,-361.75 24.5,-358.75 27.5,-355.75 30.5,-355.75 30.5,-355.75 91.5,-355.75 91.5,-355.75 94.5,-355.75 97.5,-358.75 97.5,-361.75 97.5,-361.75 97.5,-367.75 97.5,-367.75 97.5,-370.75 94.5,-373.75 91.5,-373.75"/>
<text text-anchor="middle" x="61" y="-362.55" font-family="Helvetica,sans-Serif" font-size="9.00">setupTests.ts</text>
</a>
</g>
</g>
<!-- src/setupTests.ts&#45;&gt;node_modules/@testing&#45;library -->
<g id="edge44" class="edge">
<title>src/setupTests.ts&#45;&gt;node_modules/@testing&#45;library</title>
<path fill="none" stroke="#000000" stroke-opacity="0.200000" d="M62.09,-355.65C62.79,-305.94 68.73,-67.75 119,-19.75 154.6,14.25 179.77,-6.75 229,-6.75 229,-6.75 229,-6.75 610,-6.75 677.61,-6.75 703.6,-8.82 755,-52.75 792.15,-84.5 810.58,-142.2 817.56,-169.57"/>
<polygon fill="#000000" fill-opacity="0.200000" stroke="#000000" stroke-opacity="0.200000" points="815.55,-170.21 819.02,-175.53 819.63,-169.21 815.55,-170.21"/>
</g>
</g>
</svg>
